<?xml version="1.0" encoding="UTF-8" standalone="no"?>
<svg
  width="215.79411"
  height="281.93652"
  viewBox="0 0 215.79412 281.93652"
  version="1.1"
  xmlns="http://www.w3.org/2000/svg"
  xmlns:svg="http://www.w3.org/2000/svg">
/>
  <g>
    <path
      d="M 152.29662,60.055 C 132.45668,40.2244 113.52748,21.32031 107.89389,0 102.26,21.32031 83.32779,40.2244 63.49117,60.055 33.73608,89.79125 0,123.49285 0,174.03945 a 107.89706,107.89706 0 1 0 215.79412,0 c 0,-50.54329 -33.73332,-84.2482 -63.4975,-113.9845 m -106.437,139.12629 c -6.61579,-0.22465 -31.032,-42.30942 14.264,-87.11921 l 29.97421,32.74173 a 2.56218,2.56218 0 0 1 -0.20008,3.82343 c -7.15258,7.33582 -37.63873,37.90726 -41.42794,48.47813 -0.78212,2.1819 -1.9244,2.09938 -2.61022,2.07592 m 62.03758,55.46649 A 37.1083,37.1083 0 0 1 70.78861,217.53916 c 0,-9.39547 3.73511,-17.76815 9.2492,-24.51118 6.69113,-8.182 27.8544,-31.19458 27.8544,-31.19458 0,0 20.83926,23.3504 27.80444,31.11648 a 36.29012,36.29012 0 0 1 9.30909,24.58928 37.10866,37.10866 0 0 1 -37.10857,37.10857 m 71.02571,-60.17692 c -0.79979,1.74916 -2.6141,4.66931 -5.06287,4.75845 -4.36489,0.159 -4.8313,-2.07758 -8.05751,-6.85231 -7.083,-10.48173 -68.89624,-75.08371 -80.45787,-87.57762 -10.16959,-10.989 -1.43207,-18.73629 2.621,-22.79623 5.08494,-5.094 19.9277,-19.92771 19.9277,-19.92771 0,0 44.25756,41.99149 62.69358,70.68322 18.43602,28.69173 12.08241,53.51918 8.336,61.7122"
    />
  </g>
</svg>
